<?xml version="1.0" encoding="utf-8"?>
<svg viewBox="0 0 500 500" xmlns="http://www.w3.org/2000/svg">
  <g transform="matrix(1, 0, 0, 1, -0.56609, -0.000603)">
    <circle style="fill: rgb(89, 216, 255);" cx="250.016" cy="250.017" r="220.406"/>
    <g transform="matrix(0.889027, 0, 0, 0.889027, 22.409752, 22.409405)" style="">
      <path style="fill:#00C3F0;" d="M478.376,365.474c-25.489,15.428-54.165,26.544-85.267,32.028 c-29.469,5.197-58.639,4.954-86.483-0.001c0.377-1.824,0.846-3.626,1.024-5.496l0.981-10.333 c13.452-4.785,23.052-17.111,24.087-31.744l1.514-21.453c1.26-17.873-7.073-35.355-21.747-45.629l-4.375-3.064 c-8.67-6.07-18.843-9.277-29.422-9.277c-2.977,0-5.974,0.262-8.907,0.779l-0.307,0.053l-26.742-18.725 c-11.557-8.092-25.122-12.369-39.228-12.369c-3.97,0-7.965,0.349-11.877,1.04l-34.034,6.001l1.688-0.298 c7.057-1.245,13.272-5.386,17.139-11.419l51.197-79.891l5.307-0.935c12.447-2.196,22.624-11.02,26.559-23.028l1.625-4.964 c4.149-12.666,0.609-26.007-8.304-34.862c5.854-5.79,8.72-14.216,7.226-22.693l-1.871-10.616 c-1.181-6.699-4.974-12.655-10.546-16.556c-4.342-3.039-9.484-4.639-14.712-4.639c-1.483,0-2.973,0.128-4.454,0.39L167.32,48.554 c-2.758,0.486-5.418,1.421-7.875,2.768l-15.584,8.544c-4.111-2.729-9.008-4.282-14.153-4.283c-1.479,0-2.976,0.128-4.483,0.393 l-3.229,0.57c1.817-4.266,3.619-8.539,5.667-12.69c-8.956,5.421-17.415,11.492-25.538,17.938c-0.211,0.09-0.434,0.155-0.645,0.246 c-1.175,0.937-2.284,1.944-3.438,2.902c-0.411,0.341-0.815,0.69-1.225,1.034c-1.158,0.975-2.249,2.016-3.373,3.026 c-0.024-0.034-0.05-0.071-0.075-0.105C29.959,124.121-3.796,210.229,11.869,299.072C35.644,433.912,164.23,523.948,299.071,500.173 c4.958-0.874,9.831-1.943,14.664-3.097c0.24-0.058,0.477-0.12,0.716-0.178c4.566-1.105,9.073-2.332,13.52-3.678 c0.322-0.097,0.645-0.189,0.967-0.287c9.203-2.828,18.145-6.155,26.802-9.958c0.609-0.267,1.209-0.548,1.813-0.82 c3.681-1.653,7.31-3.389,10.885-5.209c0.647-0.329,1.298-0.648,1.941-0.981c4.049-2.106,8.052-4.28,11.956-6.592 c-0.005-0.007-0.011-0.015-0.016-0.022C424.037,444.624,457.267,408.263,478.376,365.474z"/>
      <path style="fill:#00C3F0;" d="M463.672,120.524l-1.618,0.611l-13.281,2.341c-1.967,0.346-3.953,0.519-5.937,0.519 c-3.291,0-6.575-0.474-9.75-1.419l-7.629-2.269c-3.175-0.945-6.458-1.419-9.748-1.419c-1.984,0-3.972,0.173-5.939,0.519 l-23.895,4.214l-5.785,22.212c-1.686,6.472-6.99,11.366-13.576,12.527l5.235-0.923c2.953-0.52,5.933-0.779,8.907-0.779 c6.248,0,12.471,1.142,18.351,3.396L417.134,167c2.981,1.142,6.088,1.698,9.171,1.698c6.485,0,12.863-2.462,17.72-7.102 l4.938-4.717c3.661-3.498,8.275-5.832,13.262-6.713l12.174-2.146l2.526,0.246L463.672,120.524z"/>
      <path style="fill:#00C3F0;" d="M473.539,373.719c-0.576,0.038-1.149,0.058-1.722,0.058c-8.635,0-16.834-4.329-21.67-11.721 l-18.61-28.441c-5.071-7.75-8.516-16.45-10.124-25.571l-4.985-28.271c-2.194-12.443-13.015-21.197-25.226-21.197 c-1.479,0-2.978,0.128-4.484,0.394l-0.63,0.111c-2.845,0.501-5.714,0.75-8.572,0.75c-7.714,0-15.363-1.808-22.316-5.33 l-1.428-0.723c-13.863-7.024-23.61-20.165-26.308-35.469c-1.091-6.186-0.992-12.523,0.294-18.672l3.92-18.761 c2.144-10.265,10.323-18.19,20.65-20.012l5.258-0.928l-5.518,0.973c-1.005,0.177-2.004,0.263-2.99,0.263 c-8.141,0-15.356-5.837-16.818-14.131l-2.165-12.278c-1.048-5.949,1.152-11.839,5.489-15.704c1.038,0.095,2.054,0.277,3.114,0.277 c1.978,0,3.968-0.173,5.913-0.513c9.04-1.599,16.877-6.594,22.112-14.075c5.244-7.493,7.249-16.577,5.65-25.582l-2.966-16.808 c-0.361-2.056-0.904-4.04-1.603-5.94l4.971-7.102l5.498-8.995c-7.456-4.233-15.148-8.059-23.023-11.51l-3.941,6.447l-1.417,2.023 c-4.34-1.98-9.092-3.183-14.129-3.183c-2.029,0-4.075,0.183-6.077,0.545c-8.896,1.573-16.732,6.569-21.969,14.049 c-5.244,7.492-7.249,16.577-5.65,25.582l2.966,16.808c1.047,5.98,3.632,11.341,7.269,15.765 c-6.569,9.133-9.519,20.717-7.465,32.367l2.166,12.281c0.734,4.163,2.051,8.095,3.858,11.716c-1.92,3.873-3.371,8.036-4.288,12.422 l-3.92,18.757c-1.961,9.379-2.112,18.925-0.447,28.37c4.079,23.132,19.022,43.28,39.974,53.895l1.431,0.725 c10.456,5.297,22.181,8.098,33.905,8.098c4.354,0,8.737-0.383,13.025-1.139l0.63-0.111l4.985,28.271 c2.224,12.611,6.908,24.44,13.92,35.158l18.61,28.441c7.206,11.014,18.151,18.669,30.58,21.773 c5.401-7.737,10.308-15.808,14.803-24.118L473.539,373.719z"/>
    </g>
    <g transform="matrix(0.889027, 0, 0, 0.889027, 22.409752, 22.409405)" style="">
      <path style="fill:#B4FF87;" d="M500.131,212.929c-4.036-22.892-11.156-44.452-20.754-64.423l-4.979-0.485l-12.174,2.146 c-4.986,0.879-9.6,3.215-13.261,6.713l-4.938,4.717c-7.166,6.847-17.636,8.95-26.891,5.404l-18.127-6.945 c-8.68-3.327-18.102-4.231-27.258-2.616l-19.423,3.425c-10.327,1.821-18.506,9.747-20.65,20.012l-3.92,18.761 c-1.286,6.149-1.385,12.486-0.294,18.672c2.698,15.305,12.445,28.446,26.308,35.469l1.428,0.723 c9.53,4.828,20.369,6.435,30.888,4.58l0.63-0.111c13.95-2.46,27.251,6.855,29.711,20.804l4.985,28.271 c1.608,9.122,5.053,17.821,10.124,25.571l18.61,28.441c5.157,7.882,14.137,12.282,23.393,11.664l0.53,0.035 C499.74,326.295,510.227,270.192,500.131,212.929z"/>
      <path style="fill:#B4FF87;" d="M378.27,40.32l-5.498,8.995l-6.182,8.83c-1.64,2.341-2.283,5.239-1.787,8.055l3.155,17.886 c1.08,6.122-0.317,12.424-3.883,17.517c-2.087,2.981-4.84,5.435-8.04,7.168l-16.262,7.496c-7.053,3.251-11.028,10.847-9.681,18.497 l2.165,12.278c1.639,9.3,10.508,15.509,19.808,13.87l14.448-2.548c6.586-1.162,11.89-6.056,13.577-12.528l5.785-22.212 l23.895-4.214c5.229-0.922,10.599-0.614,15.687,0.9l7.629,2.269c5.089,1.514,10.458,1.822,15.687,0.9l13.281-2.341l1.618-0.611 C441.884,87.15,412.451,59.728,378.27,40.32z"/>
      <path style="fill:#B4FF87;" d="M297.776,303.855l-4.377-3.065c-5.573-3.901-12.466-5.43-19.164-4.249l-3.795,0.669 c-4.467,0.788-9.061-0.232-12.775-2.832l-29.643-20.757c-9.287-6.503-20.775-9.05-31.941-7.081l-35.641,6.285h0.001l-5,33.718 l3.743,21.23c1.179,6.682,5.434,12.42,11.487,15.487l28.846,14.615c6.053,3.067,10.308,8.804,11.488,15.487l4.99,28.302 c1.988,11.277,6.221,22.039,12.448,31.648l16.965,26.178c2.233,3.448,6.285,5.263,10.344,4.636l0.067-0.011 c5.779-0.892,9.694-6.36,8.679-12.118l-5.572-31.603l15.374-14.688c4.459-4.259,7.234-9.983,7.816-16.122l2.054-21.639 c0.681-4.589,4.222-8.228,8.791-9.034l5.291-0.933c4.872-0.859,8.532-4.922,8.881-9.857l1.514-21.452 C309.282,317.683,305.156,309.023,297.776,303.855z"/>
    </g>
    <path style="fill: rgb(155, 245, 125);" d="M 272.871 370.637 C 228.561 357.897 189.239 331.494 160.692 295.447 L 163.929 313.81 C 164.977 319.75 168.76 324.852 174.141 327.578 L 199.786 340.571 C 205.167 343.298 208.95 348.398 209.999 354.34 L 214.435 379.501 C 216.203 389.527 219.966 399.094 225.502 407.637 L 240.584 430.91 C 242.569 433.975 246.172 435.589 249.78 435.031 L 249.84 435.022 C 254.978 434.229 258.458 429.367 257.556 424.248 L 252.602 396.153 L 266.27 383.094 C 269.772 379.75 272.016 375.368 272.871 370.637 Z"/>
    <path style="fill: rgb(180, 255, 135);" d="M 106.805 257.988 L 127.52 258.462 L 126.266 248.645 C 124.079 236.244 132.359 224.418 144.761 222.231 L 160.056 219.534 L 209.333 142.642 C 210.489 140.991 212.254 139.867 214.239 139.516 L 225.528 137.526 C 228.288 137.038 230.558 135.072 231.431 132.407 L 232.875 127.997 C 234.096 124.27 232.282 120.226 228.685 118.661 L 208.42 109.846 C 203.275 107.607 203.242 100.323 208.365 98.038 L 231.129 87.884 L 229.466 78.446 L 175.121 88.029 L 139.935 107.319 L 137.697 94.627 L 128.619 96.229 C 120.68 97.629 113.62 102.126 108.996 108.731 L 105.032 114.392 C 102.624 117.83 97.886 118.667 94.447 116.258 L 85.552 110.03 L 79.969 109.802 C 59.87 134.202 45.064 162.808 36.881 193.732 L 57.442 231.702 C 61.371 238.957 69.499 242.883 77.622 241.45 L 82.894 240.521 L 89.015 248.775 C 93.205 254.427 99.771 257.826 106.805 257.988 Z"/>
    <path style="fill: rgb(155, 245, 125);" d="M 106.805 257.988 L 127.52 258.462 L 126.266 248.645 C 125.528 244.459 126.066 240.373 127.47 236.665 C 122.709 224.028 118.993 210.801 116.563 197.018 C 110.566 163.009 112.869 129.505 121.77 98.395 C 116.691 100.614 112.227 104.117 108.995 108.733 L 105.031 114.394 C 102.623 117.832 97.885 118.668 94.446 116.26 L 85.551 110.032 L 80.142 109.81 C 79.126 111.042 78.074 112.247 77.084 113.501 C 76.089 114.761 75.089 116.016 74.125 117.297 C 71.531 120.733 69.026 124.234 66.637 127.815 C 66.001 128.769 65.388 129.735 64.767 130.699 C 62.604 134.052 60.538 137.469 58.556 140.936 C 57.645 142.533 56.773 144.152 55.902 145.771 C 54.436 148.495 53.036 151.255 51.684 154.041 C 50.883 155.693 50.058 157.331 49.297 159.004 C 47.459 163.042 45.729 167.135 44.135 171.287 C 43.472 173.017 42.897 174.786 42.277 176.533 C 41.295 179.298 40.351 182.077 39.479 184.885 C 38.829 186.975 38.211 189.077 37.625 191.19 C 37.378 192.074 37.182 192.972 36.947 193.86 L 57.438 231.701 C 61.367 238.956 69.495 242.882 77.618 241.449 L 82.89 240.52 L 89.011 248.774 C 93.205 254.427 99.771 257.826 106.805 257.988 Z"/>
    <path d="M 474.075 210.491 C 463.521 150.638 430.292 98.478 380.506 63.619 C 330.721 28.76 270.343 15.373 210.489 25.926 C 150.637 36.48 98.477 69.71 63.617 119.494 C 28.757 169.279 15.372 229.659 25.925 289.512 C 36.479 349.365 69.708 401.525 119.493 436.384 C 158.178 463.471 203.256 477.591 249.517 477.591 C 262.791 477.591 276.166 476.427 289.51 474.075 C 349.363 463.522 401.523 430.292 436.382 380.507 C 471.24 330.721 484.627 270.343 474.075 210.491 Z M 384.759 136.167 L 386.964 148.675 C 387.574 152.132 390.58 154.564 393.972 154.564 C 394.383 154.564 394.8 154.527 395.218 154.454 C 399.093 153.771 401.681 150.076 400.998 146.201 L 399.269 136.402 L 405.42 138.232 C 410.975 139.883 416.927 140.226 422.634 139.218 L 431.417 137.67 C 433.508 141.049 435.51 144.484 437.409 147.98 L 432.118 148.912 C 426.28 149.941 420.93 152.651 416.643 156.745 L 412.253 160.938 C 407.896 165.101 401.443 166.397 395.816 164.242 L 379.702 158.068 C 375.567 156.484 371.269 155.441 366.91 154.936 C 367.021 154.585 367.135 154.234 367.228 153.875 L 371.218 138.553 L 384.759 136.167 Z M 376.756 78.473 L 371.128 83.625 C 368.224 86.282 368.026 90.789 370.684 93.691 C 372.088 95.227 374.011 96.005 375.941 96.005 C 377.66 96.005 379.384 95.388 380.75 94.136 L 388.072 87.433 C 401.192 98.536 412.798 111.055 422.733 124.732 L 420.161 125.186 C 416.621 125.809 412.93 125.598 409.484 124.573 L 402.704 122.556 C 397.149 120.904 391.196 120.562 385.488 121.568 L 364.244 125.315 C 361.5 125.798 359.289 127.838 358.586 130.535 L 353.443 150.282 C 352.65 153.33 350.133 155.652 347.032 156.199 L 334.419 158.423 C 334.418 158.423 334.418 158.423 334.418 158.423 L 334.187 158.464 C 329.803 159.237 325.605 156.299 324.832 151.914 L 322.907 140.998 C 322.271 137.389 324.151 133.796 327.479 132.262 L 341.936 125.598 C 342.075 125.534 342.212 125.465 342.346 125.392 C 346.144 123.335 349.462 120.378 351.938 116.841 C 356.222 110.721 357.867 103.301 356.571 95.943 L 353.766 80.043 C 353.654 79.408 353.791 78.768 354.152 78.236 L 361.45 68.15 C 365.132 70.412 368.762 72.79 372.334 75.291 C 373.824 76.336 375.297 77.396 376.756 78.473 Z M 75.29 127.668 C 77.827 124.044 80.474 120.525 83.204 117.09 L 90.378 122.113 C 93.6 124.37 97.509 125.238 101.382 124.553 C 105.256 123.87 108.631 121.719 110.887 118.498 L 114.851 112.836 C 118.416 107.742 123.753 104.344 129.875 103.264 L 131.934 102.902 L 134.255 116.061 C 134.865 119.518 137.87 121.95 141.263 121.95 C 141.674 121.95 142.091 121.914 142.509 121.841 C 146.384 121.158 148.972 117.462 148.288 113.587 L 147.855 111.132 L 177.531 94.863 L 211.469 88.879 L 205.478 91.551 C 200.49 93.777 197.406 98.552 197.432 104.013 C 197.457 109.476 200.584 114.222 205.592 116.401 L 225.858 125.217 C 226.084 125.316 226.197 125.566 226.121 125.8 L 224.676 130.21 C 224.621 130.377 224.479 130.5 224.306 130.53 L 213.017 132.52 C 209.143 133.203 205.767 135.355 203.511 138.576 C 203.455 138.656 203.402 138.736 203.349 138.817 L 155.758 213.079 L 143.54 215.234 C 127.289 218.1 116.4 233.651 119.265 249.901 L 119.488 251.17 L 106.984 250.884 C 102.113 250.772 97.654 248.464 94.753 244.551 L 88.631 236.297 C 87.023 234.129 84.326 233.057 81.671 233.525 L 76.4 234.454 C 71.289 235.355 66.193 232.894 63.72 228.33 L 44.444 192.732 C 50.867 169.755 61.203 147.787 75.29 127.668 Z M 287.036 460.042 C 274.523 462.247 261.993 463.338 249.546 463.337 C 206.186 463.336 163.925 450.099 127.666 424.71 C 80.999 392.034 49.851 343.141 39.959 287.036 C 35.624 262.449 35.599 237.769 39.688 213.87 L 51.191 235.113 C 56.588 245.08 67.713 250.453 78.876 248.486 L 79.809 248.322 L 83.308 253.039 C 88.85 260.508 97.361 264.916 106.661 265.129 L 139.762 265.885 C 141.361 265.922 142.9 266.426 144.209 267.343 L 146.384 268.866 C 149.518 271.062 153.083 272.388 156.785 272.784 L 153.576 293.881 C 153.46 294.647 153.468 295.428 153.603 296.19 L 156.93 315.064 C 158.359 323.17 163.596 330.231 170.94 333.952 L 196.584 346.945 C 199.948 348.649 202.345 351.883 203 355.595 L 207.436 380.756 C 209.38 391.781 213.453 402.135 219.541 411.529 L 234.622 434.802 C 237.667 439.5 242.88 442.276 248.411 442.275 C 249.25 442.275 250.099 442.211 250.946 442.081 C 255.339 441.402 259.185 439.037 261.773 435.423 C 264.361 431.808 265.362 427.406 264.59 423.028 L 260.297 398.687 L 271.209 388.263 C 276.41 383.295 279.649 376.613 280.329 369.451 L 282.132 350.461 C 282.329 349.472 283.113 348.702 284.114 348.526 L 288.818 347.696 C 296.382 346.363 302.043 340.08 302.583 332.418 L 303.929 313.346 C 304.664 302.92 299.803 292.72 291.243 286.725 L 287.351 284 C 280.804 279.415 272.864 277.654 264.99 279.043 L 261.617 279.637 C 259.496 280.013 257.349 279.537 255.582 278.299 L 229.229 259.845 C 219.354 252.932 207.378 250.277 195.51 252.369 L 160.588 258.527 C 158.466 258.902 156.321 258.426 154.554 257.189 L 152.379 255.666 C 148.757 253.129 144.505 251.735 140.084 251.634 L 134.017 251.495 L 133.299 247.42 C 131.798 238.908 137.502 230.761 146.014 229.26 L 153.966 227.858 L 155.368 235.81 C 155.978 239.268 158.984 241.699 162.376 241.699 C 162.787 241.699 163.204 241.663 163.622 241.59 C 167.497 240.906 170.085 237.211 169.402 233.336 L 167.308 221.459 L 215.221 146.696 C 215.291 146.618 215.387 146.565 215.492 146.547 L 226.781 144.555 C 232.141 143.611 236.523 139.81 238.218 134.639 L 239.662 130.228 C 242.041 122.964 238.551 115.189 231.543 112.14 L 212.679 103.935 L 234.048 94.404 C 237.034 93.073 238.731 89.879 238.163 86.661 L 236.5 77.223 C 236.171 75.362 235.118 73.707 233.57 72.623 C 232.021 71.539 230.106 71.114 228.245 71.443 L 173.899 81.026 C 173.133 81.161 172.393 81.42 171.711 81.796 L 145.241 96.307 L 144.729 93.404 C 144.4 91.543 143.347 89.889 141.799 88.805 C 140.251 87.721 138.335 87.297 136.475 87.625 L 127.398 89.226 C 117.526 90.966 108.924 96.447 103.174 104.657 L 99.21 110.319 C 99.182 110.359 99.097 110.48 98.904 110.514 C 98.71 110.55 98.589 110.464 98.548 110.435 L 92.467 106.177 C 124.049 71.442 165.973 48.24 212.96 39.954 C 225.473 37.748 238.003 36.658 250.45 36.658 C 284.8 36.658 318.458 44.975 348.99 61.052 L 342.561 69.938 C 342.539 69.968 342.518 69.998 342.496 70.03 C 339.937 73.685 338.953 78.118 339.728 82.514 L 342.533 98.416 C 343.17 102.024 342.363 105.663 340.261 108.665 C 339.086 110.344 337.525 111.755 335.737 112.76 L 321.511 119.318 C 312.309 123.56 307.112 133.492 308.87 143.47 L 310.795 154.385 C 311.705 159.544 314.341 163.964 317.987 167.192 C 314.209 171.142 311.497 176.134 310.319 181.771 L 306.834 198.448 C 305.501 204.83 305.399 211.322 306.53 217.743 C 309.304 233.475 319.467 247.176 333.716 254.395 L 334.985 255.038 C 344.767 259.994 356.104 261.675 366.903 259.771 L 367.463 259.673 C 371.589 258.945 375.747 259.868 379.176 262.269 C 382.606 264.67 384.896 268.265 385.623 272.387 L 390.055 297.521 C 391.661 306.632 395.044 315.177 400.109 322.918 L 416.654 348.202 C 420.462 354.021 426.103 358.241 432.51 360.342 C 430.047 364.402 427.454 368.403 424.704 372.329 C 392.033 419 343.14 450.148 287.036 460.042 Z M 245.604 397.407 L 250.557 425.503 C 250.687 426.237 250.428 426.791 250.188 427.125 C 249.949 427.46 249.508 427.884 248.711 428.006 C 247.88 428.136 247.04 427.76 246.581 427.052 L 231.499 403.779 C 226.455 395.996 223.08 387.417 221.469 378.282 L 217.033 353.121 C 215.604 345.015 210.367 337.955 203.024 334.234 L 177.379 321.24 C 174.016 319.537 171.618 316.304 170.964 312.591 L 167.838 294.869 L 171.456 271.086 L 197.985 266.408 C 206.107 264.976 214.3 266.793 221.056 271.522 L 247.409 289.976 C 252.295 293.397 258.218 294.71 264.092 293.674 L 267.466 293.08 C 271.588 292.352 275.749 293.275 279.179 295.676 L 283.07 298.401 C 287.554 301.542 290.101 306.885 289.715 312.346 L 288.369 331.417 C 288.29 332.544 287.457 333.468 286.345 333.665 L 281.64 334.494 C 274.547 335.744 269.07 341.372 268.014 348.497 C 267.996 348.621 267.981 348.744 267.97 348.869 L 266.144 368.106 C 265.787 371.858 264.091 375.358 261.366 377.96 L 247.697 391.018 C 245.976 392.664 245.19 395.062 245.604 397.407 Z M 439.739 347.453 C 435.229 346.836 431.128 344.296 428.582 340.403 L 412.038 315.119 C 408.035 309.002 405.362 302.25 404.091 295.051 L 399.66 269.917 C 398.272 262.045 393.9 255.185 387.353 250.6 C 380.805 246.015 372.865 244.254 364.992 245.643 L 364.432 245.742 C 356.649 247.113 348.479 245.902 341.428 242.33 L 340.16 241.688 C 329.891 236.485 322.566 226.611 320.567 215.274 C 319.751 210.646 319.825 205.967 320.786 201.368 L 324.271 184.689 C 325.589 178.379 330.543 173.579 336.891 172.458 L 354.16 169.413 C 361.027 168.202 368.096 168.882 374.608 171.376 L 390.722 177.55 C 401.464 181.666 413.781 179.192 422.1 171.245 L 426.49 167.051 C 428.735 164.906 431.539 163.488 434.596 162.948 L 444.035 161.284 C 451.445 177.565 456.852 194.888 460.041 212.967 C 468.234 259.432 461.018 306.232 439.739 347.453 Z" style=""/>
    <path d="M 166.371 132.96 C 167.917 132.96 169.474 132.458 170.783 131.425 L 182.27 122.354 C 185.358 119.915 185.885 115.434 183.446 112.346 C 181.007 109.258 176.526 108.732 173.438 111.17 L 161.951 120.242 C 158.863 122.681 158.336 127.162 160.775 130.25 C 162.18 132.031 164.265 132.96 166.371 132.96 Z" style=""/>
    <path d="M 316.528 99.355 C 317.138 102.813 320.144 105.244 323.537 105.244 C 323.947 105.244 324.364 105.208 324.782 105.135 C 328.657 104.452 331.245 100.756 330.562 96.881 L 327.922 81.912 C 327.239 78.036 323.546 75.448 319.668 76.132 C 315.793 76.815 313.205 80.511 313.889 84.386 L 316.528 99.355 Z" style=""/>
    <g transform="matrix(0.889027, 0, 0, 0.889027, 22.409752, 22.409405)" style=""/>
    <g transform="matrix(0.889027, 0, 0, 0.889027, 22.409752, 22.409405)" style=""/>
    <g transform="matrix(0.889027, 0, 0, 0.889027, 22.409752, 22.409405)" style=""/>
    <g transform="matrix(0.889027, 0, 0, 0.889027, 22.409752, 22.409405)" style=""/>
    <g transform="matrix(0.889027, 0, 0, 0.889027, 22.409752, 22.409405)" style=""/>
    <g transform="matrix(0.889027, 0, 0, 0.889027, 22.409752, 22.409405)" style=""/>
    <g transform="matrix(0.889027, 0, 0, 0.889027, 22.409752, 22.409405)" style=""/>
    <g transform="matrix(0.889027, 0, 0, 0.889027, 22.409752, 22.409405)" style=""/>
    <g transform="matrix(0.889027, 0, 0, 0.889027, 22.409752, 22.409405)" style=""/>
    <g transform="matrix(0.889027, 0, 0, 0.889027, 22.409752, 22.409405)" style=""/>
    <g transform="matrix(0.889027, 0, 0, 0.889027, 22.409752, 22.409405)" style=""/>
    <g transform="matrix(0.889027, 0, 0, 0.889027, 22.409752, 22.409405)" style=""/>
    <g transform="matrix(0.889027, 0, 0, 0.889027, 22.409752, 22.409405)" style=""/>
    <g transform="matrix(0.889027, 0, 0, 0.889027, 22.409752, 22.409405)" style=""/>
    <g transform="matrix(0.889027, 0, 0, 0.889027, 22.409752, 22.409405)" style=""/>
    <g style="stroke: none; stroke-width: 0; stroke-dasharray: none; stroke-linecap: butt; stroke-linejoin: miter; stroke-miterlimit: 10; fill: none; fill-rule: nonzero; opacity: 1;" transform="matrix(3.532501, 0, 0, 3.532501, 160.79808, 22.305992)">
      <polygon points="89,67.44 49.92,85.3 49.92,31.17 89,13.32 " style="stroke: none; stroke-width: 1; stroke-dasharray: none; stroke-linecap: butt; stroke-linejoin: miter; stroke-miterlimit: 10; fill: rgb(192,58,43); fill-rule: nonzero; opacity: 1;" transform="  matrix(1 0 0 1 0 0) "/>
      <polygon points="1,67.44 40.08,85.3 40.08,31.17 1,13.32 " style="stroke: none; stroke-width: 1; stroke-dasharray: none; stroke-linecap: butt; stroke-linejoin: miter; stroke-miterlimit: 10; fill: rgb(230,76,60); fill-rule: nonzero; opacity: 1;" transform="  matrix(1 0 0 1 0 0) "/>
      <rect x="40.08" y="31.17" rx="0" ry="0" width="9.84" height="54.12" style="stroke: none; stroke-width: 1; stroke-dasharray: none; stroke-linecap: butt; stroke-linejoin: miter; stroke-miterlimit: 10; fill: rgb(192,58,43); fill-rule: nonzero; opacity: 1;" transform=" matrix(1 0 0 1 0 0) "/>
      <polygon points="75.62,46.9 62.23,53.02 62.23,34.46 75.62,28.34 " style="stroke: none; stroke-width: 1; stroke-dasharray: none; stroke-linecap: butt; stroke-linejoin: miter; stroke-miterlimit: 10; fill: rgb(228,197,76); fill-rule: nonzero; opacity: 1;" transform="  matrix(1 0 0 1 0 0) "/>
      <polygon points="14.38,46.9 27.77,53.02 27.77,34.46 14.38,28.34 " style="stroke: none; stroke-width: 1; stroke-dasharray: none; stroke-linecap: butt; stroke-linejoin: miter; stroke-miterlimit: 10; fill: rgb(228,197,76); fill-rule: nonzero; opacity: 1;" transform="  matrix(1 0 0 1 0 0) "/>
      <path d="M 62.227 54.021 c -0.188 0 -0.377 -0.054 -0.541 -0.158 c -0.286 -0.185 -0.459 -0.501 -0.459 -0.842 V 34.464 c 0 -0.392 0.229 -0.747 0.584 -0.91 l 13.397 -6.122 c 0.31 -0.141 0.669 -0.117 0.957 0.068 c 0.286 0.184 0.459 0.501 0.459 0.841 v 18.556 c 0 0.392 -0.229 0.747 -0.584 0.909 L 62.643 53.93 C 62.51 53.99 62.368 54.021 62.227 54.021 z M 63.227 35.107 v 16.357 l 11.397 -5.208 V 29.899 L 63.227 35.107 z M 75.624 46.898 h 0.01 H 75.624 z" style="stroke: none; stroke-width: 1; stroke-dasharray: none; stroke-linecap: butt; stroke-linejoin: miter; stroke-miterlimit: 10; fill: rgb(0,0,0); fill-rule: nonzero; opacity: 1;" transform=" matrix(1 0 0 1 0 0) " stroke-linecap="round"/>
      <path d="M 45 29.558 c 0 -14.278 -5.541 -20.45 -18.583 -24.855 v 8.617 L 45 29.558 z" style="stroke: none; stroke-width: 1; stroke-dasharray: none; stroke-linecap: butt; stroke-linejoin: miter; stroke-miterlimit: 10; fill: rgb(205,191,135); fill-rule: nonzero; opacity: 1;" transform=" matrix(1 0 0 1 0 0) " stroke-linecap="round"/>
      <path d="M 45 30.558 c -0.237 0 -0.472 -0.084 -0.658 -0.247 L 25.759 14.073 c -0.217 -0.19 -0.342 -0.464 -0.342 -0.753 V 4.703 c 0 -0.322 0.155 -0.625 0.417 -0.813 s 0.598 -0.238 0.903 -0.135 C 40.779 8.499 46 15.492 46 29.558 c 0 0.392 -0.229 0.748 -0.586 0.911 C 45.281 30.529 45.14 30.558 45 30.558 z M 27.417 12.866 l 16.534 14.448 c -0.51 -11.246 -5.063 -17.034 -16.534 -21.201 V 12.866 z" style="stroke: none; stroke-width: 1; stroke-dasharray: none; stroke-linecap: butt; stroke-linejoin: miter; stroke-miterlimit: 10; fill: rgb(0,0,0); fill-rule: nonzero; opacity: 1;" transform=" matrix(1 0 0 1 0 0) " stroke-linecap="round"/>
      <path d="M 45 31.174 v -1.616 c 0 -3.658 -1.816 -7.109 -4.896 -9.084 C 31.146 14.727 20.799 11.142 9.588 8.9 c 0 0 -8.588 4.42 -8.588 4.42 l 39.078 17.855 H 45 z" style="stroke: none; stroke-width: 1; stroke-dasharray: none; stroke-linecap: butt; stroke-linejoin: miter; stroke-miterlimit: 10; fill: rgb(205,191,135); fill-rule: nonzero; opacity: 1;" transform=" matrix(1 0 0 1 0 0) " stroke-linecap="round"/>
      <path d="M 45 31.174 v -1.616 c 0 -3.658 1.816 -7.109 4.896 -9.084 c 8.959 -5.747 19.306 -9.332 30.517 -11.574 c 0 0 8.588 4.42 8.588 4.42 L 49.922 31.174 H 45 z" style="stroke: none; stroke-width: 1; stroke-dasharray: none; stroke-linecap: butt; stroke-linejoin: miter; stroke-miterlimit: 10; fill: rgb(205,191,135); fill-rule: nonzero; opacity: 1;" transform=" matrix(1 0 0 1 0 0) " stroke-linecap="round"/>
      <path d="M 62.228 61.162 c -0.38 0 -0.742 -0.217 -0.91 -0.584 c -0.229 -0.503 -0.009 -1.096 0.493 -1.325 l 13.397 -6.121 c 0.504 -0.23 1.096 -0.008 1.325 0.493 c 0.229 0.503 0.009 1.096 -0.493 1.325 l -13.397 6.121 C 62.508 61.133 62.366 61.162 62.228 61.162 z" style="stroke: none; stroke-width: 1; stroke-dasharray: none; stroke-linecap: butt; stroke-linejoin: miter; stroke-miterlimit: 10; fill: rgb(0,0,0); fill-rule: nonzero; opacity: 1;" transform=" matrix(1 0 0 1 0 0) " stroke-linecap="round"/>
      <path d="M 62.228 68.305 c -0.38 0 -0.742 -0.217 -0.91 -0.584 c -0.229 -0.503 -0.009 -1.096 0.493 -1.325 l 13.397 -6.122 c 0.504 -0.231 1.096 -0.009 1.325 0.493 c 0.229 0.503 0.009 1.096 -0.493 1.325 l -13.397 6.122 C 62.508 68.275 62.366 68.305 62.228 68.305 z" style="stroke: none; stroke-width: 1; stroke-dasharray: none; stroke-linecap: butt; stroke-linejoin: miter; stroke-miterlimit: 10; fill: rgb(0,0,0); fill-rule: nonzero; opacity: 1;" transform=" matrix(1 0 0 1 0 0) " stroke-linecap="round"/>
      <path d="M 27.773 54.021 c -0.142 0 -0.283 -0.03 -0.416 -0.091 L 13.96 47.808 c -0.356 -0.162 -0.584 -0.518 -0.584 -0.909 V 28.343 c 0 -0.34 0.173 -0.657 0.459 -0.841 c 0.286 -0.184 0.646 -0.209 0.956 -0.068 l 13.398 6.122 c 0.356 0.163 0.584 0.518 0.584 0.91 v 18.556 c 0 0.341 -0.173 0.657 -0.459 0.842 C 28.15 53.967 27.962 54.021 27.773 54.021 z M 15.375 46.256 l 11.398 5.208 V 35.107 l -11.398 -5.208 V 46.256 z" style="stroke: none; stroke-width: 1; stroke-dasharray: none; stroke-linecap: butt; stroke-linejoin: miter; stroke-miterlimit: 10; fill: rgb(0,0,0); fill-rule: nonzero; opacity: 1;" transform=" matrix(1 0 0 1 0 0) " stroke-linecap="round"/>
      <path d="M 27.773 61.162 c -0.139 0 -0.28 -0.029 -0.415 -0.091 L 13.96 54.95 c -0.502 -0.229 -0.724 -0.822 -0.494 -1.325 c 0.229 -0.502 0.821 -0.723 1.325 -0.493 l 13.398 6.121 c 0.502 0.229 0.724 0.822 0.494 1.325 C 28.515 60.945 28.152 61.162 27.773 61.162 z" style="stroke: none; stroke-width: 1; stroke-dasharray: none; stroke-linecap: butt; stroke-linejoin: miter; stroke-miterlimit: 10; fill: rgb(0,0,0); fill-rule: nonzero; opacity: 1;" transform=" matrix(1 0 0 1 0 0) " stroke-linecap="round"/>
      <path d="M 27.773 68.305 c -0.139 0 -0.28 -0.029 -0.415 -0.091 L 13.96 62.092 c -0.502 -0.229 -0.724 -0.822 -0.494 -1.325 c 0.229 -0.502 0.821 -0.723 1.325 -0.493 l 13.398 6.122 c 0.502 0.229 0.724 0.822 0.494 1.325 C 28.515 68.088 28.152 68.305 27.773 68.305 z" style="stroke: none; stroke-width: 1; stroke-dasharray: none; stroke-linecap: butt; stroke-linejoin: miter; stroke-miterlimit: 10; fill: rgb(0,0,0); fill-rule: nonzero; opacity: 1;" transform=" matrix(1 0 0 1 0 0) " stroke-linecap="round"/>
      <path d="M 49.922 86.298 c -0.188 0 -0.377 -0.054 -0.541 -0.159 c -0.286 -0.184 -0.459 -0.5 -0.459 -0.841 V 31.174 c 0 -0.392 0.229 -0.747 0.584 -0.91 L 88.584 12.41 c 0.309 -0.141 0.669 -0.117 0.957 0.068 C 89.827 12.663 90 12.979 90 13.32 v 54.123 c 0 0.392 -0.229 0.747 -0.584 0.909 L 50.338 86.207 C 50.205 86.268 50.063 86.298 49.922 86.298 z M 50.922 31.817 v 51.924 L 88 66.8 V 14.876 L 50.922 31.817 z M 89 67.442 h 0.01 H 89 z" style="stroke: none; stroke-width: 1; stroke-dasharray: none; stroke-linecap: butt; stroke-linejoin: miter; stroke-miterlimit: 10; fill: rgb(0,0,0); fill-rule: nonzero; opacity: 1;" transform=" matrix(1 0 0 1 0 0) " stroke-linecap="round"/>
      <path d="M 40.078 86.298 c -0.141 0 -0.283 -0.03 -0.416 -0.091 L 0.584 68.352 C 0.229 68.189 0 67.834 0 67.442 V 13.32 c 0 -0.34 0.173 -0.657 0.459 -0.841 c 0.286 -0.184 0.646 -0.21 0.956 -0.068 l 39.078 17.854 c 0.356 0.163 0.584 0.518 0.584 0.91 v 54.124 c 0 0.341 -0.173 0.657 -0.459 0.841 C 40.455 86.244 40.267 86.298 40.078 86.298 z M 2 66.8 l 37.078 16.941 V 31.817 L 2 14.876 V 66.8 z" style="stroke: none; stroke-width: 1; stroke-dasharray: none; stroke-linecap: butt; stroke-linejoin: miter; stroke-miterlimit: 10; fill: rgb(0,0,0); fill-rule: nonzero; opacity: 1;" transform=" matrix(1 0 0 1 0 0) " stroke-linecap="round"/>
      <path d="M 49.922 86.298 h -9.844 c -0.552 0 -1 -0.447 -1 -1 V 31.174 c 0 -0.552 0.448 -1 1 -1 h 9.844 c 0.553 0 1 0.448 1 1 v 54.124 C 50.922 85.851 50.475 86.298 49.922 86.298 z M 41.078 84.298 h 7.844 V 32.174 h -7.844 V 84.298 z" style="stroke: none; stroke-width: 1; stroke-dasharray: none; stroke-linecap: butt; stroke-linejoin: miter; stroke-miterlimit: 10; fill: rgb(0,0,0); fill-rule: nonzero; opacity: 1;" transform=" matrix(1 0 0 1 0 0) " stroke-linecap="round"/>
      <path d="M 45 32.174 h -4.922 c -0.144 0 -0.285 -0.031 -0.416 -0.09 L 0.584 14.229 C 0.236 14.07 0.009 13.726 0 13.343 c -0.009 -0.383 0.201 -0.737 0.542 -0.913 l 8.588 -4.42 c 0.201 -0.104 0.433 -0.137 0.654 -0.091 c 12.32 2.463 22.415 6.295 30.86 11.713 C 43.998 21.784 46 25.494 46 29.558 v 1.616 C 46 31.727 45.552 32.174 45 32.174 z M 40.296 30.174 H 44 v -0.616 c 0 -3.379 -1.658 -6.461 -4.436 -8.242 C 31.411 16.085 21.65 12.365 9.734 9.949 l -6.445 3.317 L 40.296 30.174 z" style="stroke: none; stroke-width: 1; stroke-dasharray: none; stroke-linecap: butt; stroke-linejoin: miter; stroke-miterlimit: 10; fill: rgb(0,0,0); fill-rule: nonzero; opacity: 1;" transform=" matrix(1 0 0 1 0 0) " stroke-linecap="round"/>
      <path d="M 49.922 32.174 H 45 c -0.552 0 -1 -0.448 -1 -1 v -1.616 c 0 -4.064 2.002 -7.774 5.355 -9.926 c 8.446 -5.418 18.541 -9.25 30.86 -11.713 c 0.224 -0.045 0.453 -0.012 0.654 0.091 l 8.588 4.42 c 0.34 0.175 0.551 0.53 0.542 0.913 s -0.236 0.727 -0.584 0.886 L 50.338 32.084 C 50.207 32.144 50.065 32.174 49.922 32.174 z M 46 30.174 h 3.704 l 37.007 -16.908 l -6.445 -3.317 c -11.914 2.416 -21.675 6.135 -29.83 11.367 C 47.658 23.097 46 26.179 46 29.558 V 30.174 z" style="stroke: none; stroke-width: 1; stroke-dasharray: none; stroke-linecap: butt; stroke-linejoin: miter; stroke-miterlimit: 10; fill: rgb(0,0,0); fill-rule: nonzero; opacity: 1;" transform=" matrix(1 0 0 1 0 0) " stroke-linecap="round"/>
    </g>
  </g>
</svg>